PathFileType	4	(X/Y/Z)	/home/abdul/Desktop/myosuite/custom_workspace/IK/output/S4_12_1.trc
DataRate	CameraRate	NumFrames	NumMarkers	Units	OrigDataRate	OrigDataStartFrame	OrigNumFrames
200.0	200.0	67	3	mm	200.0	142	1130
Frame#	Time	V_Shoulder			V_Elbow			V_Wrist		
		X1	Y1	Z1	X2	Y2	Z2	X3	Y3	Z3

142	0.705	-93.2593335985257	594.422177953402	269.87662735987874	-185.09985261068823	464.6356103869092	7.261617711829922	-189.53642856765947	247.88789948948857	58.444450523658304
143	0.71	-93.24200198263867	594.2824626150187	269.8458347581038	-184.61662506109877	464.8010919842418	6.917981048833333	-188.07215279410508	248.1906583981127	58.94725312196081
144	0.715	-93.2227781053363	594.1420136730285	269.8165132279956	-184.12657720267737	464.93927430612274	6.592760139643742	-186.5959977797811	248.46225204804188	59.4240256374528
145	0.72	-93.20164714535463	594.000779757499	269.7886691066941	-183.6300972938423	465.0500148425011	6.286068639141847	-185.10934284188852	248.70225223711648	59.873870009361184
146	0.725	-93.17859653269166	593.8587111009956	269.76230634109646	-183.12758294997315	465.1332329589998	5.997981759469294	-183.6135768853678	248.91030395533383	60.295960052891644
147	0.73	-93.15361592287509	593.715759903722	269.73742655511666	-182.61944016864226	465.1889092857548	5.728537074248539	-182.11009484555257	249.08612588515643	60.68954441705718
148	0.735	-93.12669716603796	593.5718806818712	269.71402912261	-182.10608233218568	465.21708488761425	5.477735432800328	-180.60029414073443	249.2295106316141	61.05394924691462
149	0.74	-93.09783427109176	593.4270305969958	269.69211124552163	-181.58792919051143	465.21786022305264	5.2455419767054	-179.08557114665751	249.34032468362372	61.388580536579994
150	0.745	-93.06702336529764	593.2811697643239	269.67166803680493	-181.06540582709826	465.1913939000847	5.0318872507442345	-177.5673177047354	249.41850810925496	61.69292616098252
151	0.75	-93.03426264954385	593.1342615381064	269.6526926076483	-180.53894161119393	465.1379012383301	4.836668399989772	-176.04691767552168	249.46407398894905	61.96655757598448
152	0.755	-92.99955234964538	592.9862727722256	269.6351761585408	-180.00896913927818	465.0576526471775	4.659750444623866	-174.52574354867005	249.47710759195084	62.20913117823023
153	0.76	-92.96289466398632	592.83717405447	269.619108073703	-179.47592316891576	464.950971830727	4.500967623899533	-173.00515312029415	249.45776530242625	62.42038931788084
154	0.765	-92.92429370782774	592.6869399130605	269.60447601840866	-178.94023954818573	464.8182338308451	4.360124800578008	-171.48648624827956	249.40627330290909	62.60016095923049
155	0.77	-92.88375545460626	592.5355489941949	269.5912660387216	-178.40235414393567	464.65986292025127	4.23699891713208	-169.97106169571674	249.32292602383816	62.74836198607436
156	0.775	-92.84128767454628	592.3829842095819	269.57946266317623	-177.86270177217216	464.4763303580612	4.131340495024652	-168.4601740722121	249.20808436900703	62.864995150593884
157	0.78	-92.79689987090892	592.2292328531353	269.5690490059372	-177.3217151339611	464.2681520206404	4.042875168443113	-166.95509088239834	249.06217372774313	62.95014966643124
158	0.785	-92.7506032141942	592.074286686207	269.5600068709762	-176.77982376027086	464.03588592097884	3.971305243994296	-165.45704969050632	248.88568178556	63.004000448528416
159	0.79	-92.70241047461097	591.918141990955	269.5523168568198	-176.23745296924633	463.7801296300686	3.9163112780400233	-163.96725540938021	248.67915614587406	63.026807004195135
160	0.795	-92.65233595311967	591.7607995916493	269.54595846142706	-175.6950228394515	463.5015176139665	3.8775536635770704	-162.48687772181637	248.4432017761456	63.01891198173122
161	0.8	-92.60039541134812	591.6022648439475	269.5409101867746	-175.15294720265769	463.200718500343	3.8546742188353056	-161.01704864158722	248.17847829248365	62.980739384751004
162	0.805	-92.54660600066934	591.4425475923719	269.5371496427369	-174.61163265978485	462.8784322883615	3.8472977700807514	-159.55886022097383	247.88569709734728	62.91279246212675
163	0.81	-92.49098619072258	591.2816620964472	269.5346536498694	-174.0714776236183	462.53538751570113	3.855033721462977	-158.11336241107915	247.5656183854718	62.81565128517548
164	0.815	-92.43355569764664	591.1196269261624	269.53339834071716	-173.53287139192457	462.1723383964261	3.877477605134917	-156.6815610806259	247.21904803355005	62.68997002534367
165	0.82	-92.37433541228422	590.9564648276229	269.53335925929053	-172.99619325457013	461.79006194322824	3.914212605293968	-155.26441619836237	246.84683438950142	62.53647394719107
166	0.825	-92.31334732860303	590.7922025599681	269.53451145837215	-172.4618116382104	461.3893550873174	3.9648110502417837	-153.8628401836074	246.44986497736318	62.35595613292243
167	0.83	-92.2506144725673	590.626870704808	269.53682959433416	-171.93008329205406	460.9710318089135	4.028835867032226	-152.47769642886223	246.0290631339429	62.149273956059645
168	0.835	-92.18616083167986	590.4605034496257	269.5402880191721	-171.4013525181236	460.5359202909125	4.105841993767898	-151.1097979978049	245.58538459337092	61.9173453230739
169	0.84	-92.1200112854015	590.2931383467611	269.5448608694794	-170.8759504493222	460.0848601078466	4.195377745110926	-149.7599065013611	245.11981403559687	61.661144702901666
170	0.845	-92.05219153664036	590.1248160497512	269.5505221521079	-170.35419437847958	459.6186994617564	4.296986127088542	-148.42873115391836	244.6333616146805	61.38169896524204
171	0.85	-91.98272804449061	589.9555800289501	269.5572458262855	-169.83638714138627	459.1382924760275	4.410206097793791	-147.11692801111639	244.12705948243882	61.08008304936972
172	0.855	-91.91164795838448	589.7854762684893	269.56500588197997	-169.32281655663257	458.64449655763246	4.534573771101913	-145.8250993900083	243.60195832263446	60.75741548589257
173	0.86	-91.83897905380904	589.614552946757	269.57377641432134	-168.8137549248502	458.1381698375577	4.669623561038868	-144.55379347174693	243.0591239104234	60.4148537944314
174	0.865	-91.76474966972391	589.4428601026799	269.5835316939181	-168.3094585897073	457.62016869849344	4.814889264945992	-143.3035040863059	242.4996337112368	60.053589780599125
175	0.87	-91.68898864780222	589.2704492901804	269.5942462329219	-167.81016756273715	457.09134539812726	4.969905084079446	-142.0746706781027	241.92457353264723	59.67484475590619
176	0.875	-91.61172527360429	589.0973732232537	269.6058948467162	-167.31610521378332	456.5525457956122	5.134206580761325	-140.86767845074857	241.33503424208098	59.27986470431708
177	0.88	-91.53298921977891	588.9236854141653	269.61845271112605	-166.82747802852649	456.00460718798564	5.307331571657137	-139.6828586885099	240.7321085624847	58.86991541913126
178	0.885	-91.45281049137456	588.7494398073053	269.6318954150635	-166.34447543421948	455.4483562625029	5.48882095718876	-138.52048925143202	240.11688795724635	58.44627763366327
179	0.89	-91.37121937333046	588.5746904112567	269.6461990085442	-165.86726969439988	454.8846071700206	5.678219487499952	-137.38079524044753	239.49045961481556	58.01024216885244
180	0.895	-91.28824638020376	588.399490931639	269.6613400460267	-165.39601587298066	454.31415972373276	5.875076465770542	-136.26394982817183	238.85390354257666	57.56310512045079
181	0.9	-91.20392220817841	588.2238944072678	269.6772956250452	-164.9308518677356	453.7377977267262	6.078946390023622	-135.17007525048092	238.20828977860077	57.10616310782126
182	0.905	-91.11827768938959	588.047952852144	269.6940434201207	-164.47189851280777	453.15628743099376	6.289389534885775	-134.09924395337038	237.55467572896015	56.64070860563568
183	0.91	-91.03134374858644	587.8717169057323	269.71156171195395	-164.01925974947363	452.57037612972397	6.505972475042732	-133.0514798890159	236.8941036373273	56.168025378901575
184	0.915	-90.94315136214605	587.6952354939244	269.7298294119163	-163.573022864002	451.9807908838863	6.728268552381008	-132.0267599543959	236.2275981926163	55.68938404077653
185	0.92	-90.85373151944128	587.518555502996	269.7488260818697	-163.13325879105363	451.3882373833492	6.955858289020477	-131.02501556529626	235.55616427946478	55.20603775156023
186	0.925	-90.76311518655699	587.3417214687719	269.76853194936206	-162.70002248068266	450.7933989420196	7.188329748623483	-130.04613435800394	234.8807848754019	54.71921807609624
187	0.93	-90.6713332723396	587.1647752830994	269.7889279182534	-162.27335332662673	450.19693562577146	7.425278848514147	-129.08996201050863	234.20241909761927	54.230131015580895
188	0.935	-90.57841659675843	586.9877559196041	269.8099955748474	-161.85327565321	449.5994835112498	7.666309625258165	-128.15630417457356	233.52200040135443	53.7399532284761
189	0.94	-90.48439586154929	586.810699180559	269.8317171896062	-161.43979925784004	449.00165407299534	7.911034456440237	-127.24492850961502	232.84043493102547	53.249828453868886
190	0.945	-90.38930162310436	586.6336374665557	269.85407571454704	-161.0329200057547	448.40403369573926	8.15907424143523	-126.35556680894268	232.15860002441968	52.760864149225284
191	0.95	-90.29316426756729	586.456599570494	269.877054776423	-160.63262047337415	447.80718330816546	8.410058544002354	-125.4879172085652	231.4773428694511	52.2741283530614
192	0.955	-90.19601398808659	586.2796104972481	269.9006386658065	-160.2388706363373	447.21163813394315	8.663625699541159	-124.6416464684622	230.79747931225813	51.79064678161366
193	0.96	-90.09788076417617	586.1026913101783	269.92481232220183	-159.85162859805257	446.61790755538186	8.919422889836481	-123.81639231596321	230.11979281472657	51.31140016714326
194	0.965	-89.99879434312726	585.9258590054801	269.94956131532507	-159.47084135437467	446.02647508467	9.177106188088677	-123.01176584066326	229.44503355888844	50.83732184406951
195	0.97	-89.8987842234145	585.7491264151696	269.9748718226999	-159.09644558983095	445.4377984373169	9.436340576977983	-122.22735393014263	228.77391769507383	50.36929558770379
196	0.975	-89.79787964003361	585.5725021393122	270.0007306037276	-158.72836850066452	444.852309702137	9.696799942449532	-121.46272173564924	228.10712673017812	49.908153708959844
197	0.98	-89.69610955170852	585.3959905079051	270.0271249704014	-158.36652863983858	444.27041560188195	9.958167045830555	-120.71741515684496	227.44530705195334	49.454675407056996
198	0.985	-89.59350262990228	585.2195915726285	270.0540427548445	-158.01083677905723	443.6924978384545	10.220133476805206	-119.99096333471664	226.78906958483947	49.009585380919376
199	0.99	-89.49008724956612	585.0433011284828	270.08147227386064	-157.66119678280228	443.118913516512	10.482399589676843	-119.28288114180557	226.13898957251894	48.57355269871371
200	0.995	-89.38589148156035	584.8671107651393	270.1094022906985	-157.31750648936406	442.54999563919716	10.744674425243899	-118.59267165902003	225.49560648210405	48.14718992376737
201	1.0	-89.28094308668013	584.6910079476353	270.1378219742392	-156.97965859385675	441.98605366971327	11.006675620504511	-117.91982862845978	224.85942402465176	47.73105249397322
202	1.005	-89.17526951122043	584.5149761258658	270.16672085582724	-156.64754152825253	441.42737415247933	11.26812930828809	-117.26383887190357	224.23091028653604	47.325638350722976
203	1.01	-89.0688978840144	584.3389948721338	270.1960887839742	-156.3210403335481	440.8742213876732	11.528770008789335	-116.62418466488316	223.61049796609956	46.93138781241944
204	1.015	-88.96185501488152	584.1630400458598	270.22591587717505	-156.00003751928543	440.3268381530737	11.788340514852704	-116.00034605659653	222.9985847099425	46.54868368670361
205	1.02	-88.85416739442246	583.9870839843735	270.2561924750841	-155.68441390578963	439.78544646726107	12.046591772723355	-115.39180312628866	222.395533543189	46.17785161469598
206	1.025	-88.74586119510002	583.8110957185653	270.2869090883083	-155.37404944465567	439.2502483884059	12.303282759844302	-114.79803816715422	221.8016733880913	45.819160639794
207	1.03	-88.6369622735479	583.6350412120179	270.318056347082	-155.068824013215	438.7214268430872	12.558180361139664	-114.21853778928667	221.2172996653894	45.47282399288882
208	1.035	-88.52749617405074	583.4588836221147	270.3496249490961	-154.76861817893757	438.19914647980653	12.811059245080433	-113.65279493371051	220.64267497293105	45.139000085263724
